<svg width="16" height="16" viewBox="0 0 16 16" fill="none"
  xmlns="http://www.w3.org/2000/svg">
  <rect width="16" height="16" rx="2" fill="#303030" style="fill:#303030;fill:color(display-p3 0.1875 0.1875 0.1875);fill-opacity:1;"/>
  <path d="M2.7325 13.6653C2.59083 13.6653 2.52 13.5944 2.52 13.4528V2.54725C2.52 2.40558 2.59083 2.33475 2.7325 2.33475H5.138C5.27966 2.33475 5.3505 2.40558 5.3505 2.54725V11.3958H7.4925C7.63416 11.3958 7.705 11.4666 7.705 11.6083V13.4528C7.705 13.5944 7.63416 13.6653 7.4925 13.6653H2.7325Z" fill="#E8A600" style="fill:#E8A600;fill:color(display-p3 0.9106 0.6526 0.0000);fill-opacity:1;"/>
  <path d="M13.2675 13.6653C13.4092 13.6653 13.48 13.5944 13.48 13.4528V2.54725C13.48 2.40558 13.4092 2.33475 13.2675 2.33475H7.445C7.30333 2.33475 7.2325 2.40558 7.2325 2.54725V4.38325C7.2325 4.52492 7.30333 4.59575 7.445 4.59575H10.6495V7.43475H7.87C7.72833 7.43475 7.6575 7.50558 7.6575 7.64725V9.48325C7.6575 9.62492 7.72833 9.69575 7.87 9.69575H10.6495V13.4528C10.6495 13.5944 10.7203 13.6653 10.862 13.6653H13.2675Z" fill="#E8A600" style="fill:#E8A600;fill:color(display-p3 0.9106 0.6526 0.0000);fill-opacity:1;"/>
</svg>
